<mxfile host="app.diagrams.net" modified="2022-03-05T11:24:33.809Z" agent="5.0 (Macintosh; Intel Mac OS X 10_15_7) AppleWebKit/537.36 (KHTML, like Gecko) Chrome/98.0.4758.109 Safari/537.36" etag="uhCeVA6I8DZqNg-loiWX" version="16.6.6" type="github">
  <diagram id="XkqLSIRjRJo9CghfOwvN" name="Page-1">
    <mxGraphModel dx="543" dy="1483" grid="1" gridSize="10" guides="1" tooltips="1" connect="1" arrows="1" fold="1" page="1" pageScale="1" pageWidth="827" pageHeight="1169" math="0" shadow="0">
      <root>
        <mxCell id="0" />
        <mxCell id="1" parent="0" />
        <mxCell id="1LB95kGKWVcy9-SdDkMr-1" value="" style="rounded=0;whiteSpace=wrap;html=1;" vertex="1" parent="1">
          <mxGeometry x="414" y="-90" width="120" height="20" as="geometry" />
        </mxCell>
        <mxCell id="1LB95kGKWVcy9-SdDkMr-2" value="" style="rounded=0;whiteSpace=wrap;html=1;" vertex="1" parent="1">
          <mxGeometry x="414" y="-70" width="120" height="20" as="geometry" />
        </mxCell>
        <mxCell id="1LB95kGKWVcy9-SdDkMr-3" value="" style="rounded=0;whiteSpace=wrap;html=1;" vertex="1" parent="1">
          <mxGeometry x="414" y="-50" width="120" height="20" as="geometry" />
        </mxCell>
        <mxCell id="1LB95kGKWVcy9-SdDkMr-4" value="" style="rounded=0;whiteSpace=wrap;html=1;" vertex="1" parent="1">
          <mxGeometry x="414" y="-30" width="120" height="20" as="geometry" />
        </mxCell>
        <mxCell id="1LB95kGKWVcy9-SdDkMr-5" value="&amp;nbsp;color" style="text;html=1;strokeColor=none;fillColor=none;align=left;verticalAlign=middle;whiteSpace=wrap;rounded=0;" vertex="1" parent="1">
          <mxGeometry x="414" y="-30" width="120" height="20" as="geometry" />
        </mxCell>
        <mxCell id="1LB95kGKWVcy9-SdDkMr-6" value="desks" style="text;html=1;strokeColor=none;fillColor=none;align=center;verticalAlign=middle;whiteSpace=wrap;rounded=0;" vertex="1" parent="1">
          <mxGeometry x="414" y="-90" width="120" height="20" as="geometry" />
        </mxCell>
        <mxCell id="1LB95kGKWVcy9-SdDkMr-65" value="" style="edgeStyle=orthogonalEdgeStyle;rounded=0;orthogonalLoop=1;jettySize=auto;html=1;entryX=1;entryY=0.5;entryDx=0;entryDy=0;" edge="1" parent="1" source="1LB95kGKWVcy9-SdDkMr-7" target="1LB95kGKWVcy9-SdDkMr-64">
          <mxGeometry relative="1" as="geometry" />
        </mxCell>
        <mxCell id="1LB95kGKWVcy9-SdDkMr-7" value="&amp;nbsp;id" style="text;html=1;strokeColor=none;fillColor=none;align=left;verticalAlign=middle;whiteSpace=wrap;rounded=0;" vertex="1" parent="1">
          <mxGeometry x="414" y="-70" width="120" height="20" as="geometry" />
        </mxCell>
        <mxCell id="1LB95kGKWVcy9-SdDkMr-8" value="&amp;nbsp;name" style="text;html=1;strokeColor=none;fillColor=none;align=left;verticalAlign=middle;whiteSpace=wrap;rounded=0;" vertex="1" parent="1">
          <mxGeometry x="414" y="-50" width="120" height="20" as="geometry" />
        </mxCell>
        <mxCell id="1LB95kGKWVcy9-SdDkMr-10" value="" style="rounded=0;whiteSpace=wrap;html=1;" vertex="1" parent="1">
          <mxGeometry x="414" y="10" width="120" height="20" as="geometry" />
        </mxCell>
        <mxCell id="1LB95kGKWVcy9-SdDkMr-11" value="&amp;nbsp;created_at" style="text;html=1;strokeColor=none;fillColor=none;align=left;verticalAlign=middle;whiteSpace=wrap;rounded=0;" vertex="1" parent="1">
          <mxGeometry x="414" y="10" width="120" height="20" as="geometry" />
        </mxCell>
        <mxCell id="1LB95kGKWVcy9-SdDkMr-12" value="" style="rounded=0;whiteSpace=wrap;html=1;" vertex="1" parent="1">
          <mxGeometry x="414" y="30" width="120" height="20" as="geometry" />
        </mxCell>
        <mxCell id="1LB95kGKWVcy9-SdDkMr-13" value="&amp;nbsp;updated_at" style="text;html=1;strokeColor=none;fillColor=none;align=left;verticalAlign=middle;whiteSpace=wrap;rounded=0;" vertex="1" parent="1">
          <mxGeometry x="414" y="30" width="120" height="20" as="geometry" />
        </mxCell>
        <mxCell id="1LB95kGKWVcy9-SdDkMr-14" value="" style="rounded=0;whiteSpace=wrap;html=1;" vertex="1" parent="1">
          <mxGeometry x="250" y="90" width="120" height="20" as="geometry" />
        </mxCell>
        <mxCell id="1LB95kGKWVcy9-SdDkMr-15" value="" style="rounded=0;whiteSpace=wrap;html=1;" vertex="1" parent="1">
          <mxGeometry x="250" y="110" width="120" height="20" as="geometry" />
        </mxCell>
        <mxCell id="1LB95kGKWVcy9-SdDkMr-16" value="" style="rounded=0;whiteSpace=wrap;html=1;" vertex="1" parent="1">
          <mxGeometry x="250" y="130" width="120" height="20" as="geometry" />
        </mxCell>
        <mxCell id="1LB95kGKWVcy9-SdDkMr-17" value="" style="rounded=0;whiteSpace=wrap;html=1;" vertex="1" parent="1">
          <mxGeometry x="250" y="150" width="120" height="20" as="geometry" />
        </mxCell>
        <mxCell id="1LB95kGKWVcy9-SdDkMr-19" value="lists" style="text;html=1;strokeColor=none;fillColor=none;align=center;verticalAlign=middle;whiteSpace=wrap;rounded=0;" vertex="1" parent="1">
          <mxGeometry x="250" y="90" width="120" height="20" as="geometry" />
        </mxCell>
        <mxCell id="1LB95kGKWVcy9-SdDkMr-66" value="" style="edgeStyle=orthogonalEdgeStyle;rounded=0;orthogonalLoop=1;jettySize=auto;html=1;entryX=0;entryY=0.5;entryDx=0;entryDy=0;" edge="1" parent="1" source="1LB95kGKWVcy9-SdDkMr-20" target="1LB95kGKWVcy9-SdDkMr-30">
          <mxGeometry relative="1" as="geometry" />
        </mxCell>
        <mxCell id="1LB95kGKWVcy9-SdDkMr-20" value="&amp;nbsp;id" style="text;html=1;strokeColor=none;fillColor=none;align=left;verticalAlign=middle;whiteSpace=wrap;rounded=0;" vertex="1" parent="1">
          <mxGeometry x="250" y="110" width="120" height="20" as="geometry" />
        </mxCell>
        <mxCell id="1LB95kGKWVcy9-SdDkMr-21" value="&amp;nbsp;name" style="text;html=1;strokeColor=none;fillColor=none;align=left;verticalAlign=middle;whiteSpace=wrap;rounded=0;" vertex="1" parent="1">
          <mxGeometry x="250" y="130" width="120" height="20" as="geometry" />
        </mxCell>
        <mxCell id="1LB95kGKWVcy9-SdDkMr-22" value="" style="rounded=0;whiteSpace=wrap;html=1;" vertex="1" parent="1">
          <mxGeometry x="250" y="170" width="120" height="20" as="geometry" />
        </mxCell>
        <mxCell id="1LB95kGKWVcy9-SdDkMr-23" value="&amp;nbsp;created_at" style="text;html=1;strokeColor=none;fillColor=none;align=left;verticalAlign=middle;whiteSpace=wrap;rounded=0;" vertex="1" parent="1">
          <mxGeometry x="250" y="170" width="120" height="20" as="geometry" />
        </mxCell>
        <mxCell id="1LB95kGKWVcy9-SdDkMr-24" value="" style="rounded=0;whiteSpace=wrap;html=1;" vertex="1" parent="1">
          <mxGeometry x="250" y="190" width="120" height="20" as="geometry" />
        </mxCell>
        <mxCell id="1LB95kGKWVcy9-SdDkMr-25" value="&amp;nbsp;updated_at" style="text;html=1;strokeColor=none;fillColor=none;align=left;verticalAlign=middle;whiteSpace=wrap;rounded=0;" vertex="1" parent="1">
          <mxGeometry x="250" y="190" width="120" height="20" as="geometry" />
        </mxCell>
        <mxCell id="1LB95kGKWVcy9-SdDkMr-26" value="" style="rounded=0;whiteSpace=wrap;html=1;" vertex="1" parent="1">
          <mxGeometry x="590" y="90" width="120" height="20" as="geometry" />
        </mxCell>
        <mxCell id="1LB95kGKWVcy9-SdDkMr-27" value="" style="rounded=0;whiteSpace=wrap;html=1;" vertex="1" parent="1">
          <mxGeometry x="590" y="110" width="120" height="20" as="geometry" />
        </mxCell>
        <mxCell id="1LB95kGKWVcy9-SdDkMr-28" value="" style="rounded=0;whiteSpace=wrap;html=1;" vertex="1" parent="1">
          <mxGeometry x="590" y="130" width="120" height="20" as="geometry" />
        </mxCell>
        <mxCell id="1LB95kGKWVcy9-SdDkMr-29" value="" style="rounded=0;whiteSpace=wrap;html=1;" vertex="1" parent="1">
          <mxGeometry x="590" y="150" width="120" height="20" as="geometry" />
        </mxCell>
        <mxCell id="1LB95kGKWVcy9-SdDkMr-30" value="&amp;nbsp;list_id" style="text;html=1;strokeColor=none;fillColor=none;align=left;verticalAlign=middle;whiteSpace=wrap;rounded=0;" vertex="1" parent="1">
          <mxGeometry x="590" y="150" width="120" height="20" as="geometry" />
        </mxCell>
        <mxCell id="1LB95kGKWVcy9-SdDkMr-31" value="cards" style="text;html=1;strokeColor=none;fillColor=none;align=center;verticalAlign=middle;whiteSpace=wrap;rounded=0;" vertex="1" parent="1">
          <mxGeometry x="590" y="90" width="120" height="20" as="geometry" />
        </mxCell>
        <mxCell id="1LB95kGKWVcy9-SdDkMr-69" value="" style="edgeStyle=orthogonalEdgeStyle;rounded=0;orthogonalLoop=1;jettySize=auto;html=1;entryX=1;entryY=0.5;entryDx=0;entryDy=0;" edge="1" parent="1" source="1LB95kGKWVcy9-SdDkMr-32" target="1LB95kGKWVcy9-SdDkMr-42">
          <mxGeometry relative="1" as="geometry" />
        </mxCell>
        <mxCell id="1LB95kGKWVcy9-SdDkMr-32" value="&amp;nbsp;id" style="text;html=1;strokeColor=none;fillColor=none;align=left;verticalAlign=middle;whiteSpace=wrap;rounded=0;" vertex="1" parent="1">
          <mxGeometry x="590" y="110" width="120" height="20" as="geometry" />
        </mxCell>
        <mxCell id="1LB95kGKWVcy9-SdDkMr-33" value="&amp;nbsp;name" style="text;html=1;strokeColor=none;fillColor=none;align=left;verticalAlign=middle;whiteSpace=wrap;rounded=0;" vertex="1" parent="1">
          <mxGeometry x="590" y="130" width="120" height="20" as="geometry" />
        </mxCell>
        <mxCell id="1LB95kGKWVcy9-SdDkMr-34" value="" style="rounded=0;whiteSpace=wrap;html=1;" vertex="1" parent="1">
          <mxGeometry x="590" y="170" width="120" height="20" as="geometry" />
        </mxCell>
        <mxCell id="1LB95kGKWVcy9-SdDkMr-35" value="&amp;nbsp;created_at" style="text;html=1;strokeColor=none;fillColor=none;align=left;verticalAlign=middle;whiteSpace=wrap;rounded=0;" vertex="1" parent="1">
          <mxGeometry x="590" y="170" width="120" height="20" as="geometry" />
        </mxCell>
        <mxCell id="1LB95kGKWVcy9-SdDkMr-36" value="" style="rounded=0;whiteSpace=wrap;html=1;" vertex="1" parent="1">
          <mxGeometry x="590" y="190" width="120" height="20" as="geometry" />
        </mxCell>
        <mxCell id="1LB95kGKWVcy9-SdDkMr-37" value="&amp;nbsp;updated_at" style="text;html=1;strokeColor=none;fillColor=none;align=left;verticalAlign=middle;whiteSpace=wrap;rounded=0;" vertex="1" parent="1">
          <mxGeometry x="590" y="190" width="120" height="20" as="geometry" />
        </mxCell>
        <mxCell id="1LB95kGKWVcy9-SdDkMr-38" value="" style="rounded=0;whiteSpace=wrap;html=1;" vertex="1" parent="1">
          <mxGeometry x="340" y="230" width="120" height="20" as="geometry" />
        </mxCell>
        <mxCell id="1LB95kGKWVcy9-SdDkMr-39" value="" style="rounded=0;whiteSpace=wrap;html=1;" vertex="1" parent="1">
          <mxGeometry x="340" y="250" width="120" height="20" as="geometry" />
        </mxCell>
        <mxCell id="1LB95kGKWVcy9-SdDkMr-40" value="" style="rounded=0;whiteSpace=wrap;html=1;" vertex="1" parent="1">
          <mxGeometry x="340" y="270" width="120" height="20" as="geometry" />
        </mxCell>
        <mxCell id="1LB95kGKWVcy9-SdDkMr-41" value="" style="rounded=0;whiteSpace=wrap;html=1;" vertex="1" parent="1">
          <mxGeometry x="340" y="290" width="120" height="20" as="geometry" />
        </mxCell>
        <mxCell id="1LB95kGKWVcy9-SdDkMr-42" value="&amp;nbsp;card_id" style="text;html=1;strokeColor=none;fillColor=none;align=left;verticalAlign=middle;whiteSpace=wrap;rounded=0;" vertex="1" parent="1">
          <mxGeometry x="340" y="290" width="120" height="20" as="geometry" />
        </mxCell>
        <mxCell id="1LB95kGKWVcy9-SdDkMr-43" value="tasks" style="text;html=1;strokeColor=none;fillColor=none;align=center;verticalAlign=middle;whiteSpace=wrap;rounded=0;" vertex="1" parent="1">
          <mxGeometry x="340" y="230" width="120" height="20" as="geometry" />
        </mxCell>
        <mxCell id="1LB95kGKWVcy9-SdDkMr-44" value="&amp;nbsp;id" style="text;html=1;strokeColor=none;fillColor=none;align=left;verticalAlign=middle;whiteSpace=wrap;rounded=0;" vertex="1" parent="1">
          <mxGeometry x="340" y="250" width="120" height="20" as="geometry" />
        </mxCell>
        <mxCell id="1LB95kGKWVcy9-SdDkMr-45" value="&amp;nbsp;name" style="text;html=1;strokeColor=none;fillColor=none;align=left;verticalAlign=middle;whiteSpace=wrap;rounded=0;" vertex="1" parent="1">
          <mxGeometry x="340" y="270" width="120" height="20" as="geometry" />
        </mxCell>
        <mxCell id="1LB95kGKWVcy9-SdDkMr-46" value="" style="rounded=0;whiteSpace=wrap;html=1;" vertex="1" parent="1">
          <mxGeometry x="340" y="370" width="120" height="20" as="geometry" />
        </mxCell>
        <mxCell id="1LB95kGKWVcy9-SdDkMr-48" value="" style="rounded=0;whiteSpace=wrap;html=1;" vertex="1" parent="1">
          <mxGeometry x="340" y="330" width="120" height="20" as="geometry" />
        </mxCell>
        <mxCell id="1LB95kGKWVcy9-SdDkMr-49" value="&amp;nbsp;delete" style="text;html=1;strokeColor=none;fillColor=none;align=left;verticalAlign=middle;whiteSpace=wrap;rounded=0;" vertex="1" parent="1">
          <mxGeometry x="340" y="330" width="120" height="20" as="geometry" />
        </mxCell>
        <mxCell id="1LB95kGKWVcy9-SdDkMr-50" value="" style="rounded=0;whiteSpace=wrap;html=1;" vertex="1" parent="1">
          <mxGeometry x="340" y="310" width="120" height="20" as="geometry" />
        </mxCell>
        <mxCell id="1LB95kGKWVcy9-SdDkMr-51" value="&amp;nbsp;done" style="text;html=1;strokeColor=none;fillColor=none;align=left;verticalAlign=middle;whiteSpace=wrap;rounded=0;" vertex="1" parent="1">
          <mxGeometry x="340" y="310" width="120" height="20" as="geometry" />
        </mxCell>
        <mxCell id="1LB95kGKWVcy9-SdDkMr-52" value="updated_at" style="text;html=1;strokeColor=none;fillColor=none;align=left;verticalAlign=middle;whiteSpace=wrap;rounded=0;" vertex="1" parent="1">
          <mxGeometry x="340" y="370" width="120" height="20" as="geometry" />
        </mxCell>
        <mxCell id="1LB95kGKWVcy9-SdDkMr-53" value="" style="rounded=0;whiteSpace=wrap;html=1;" vertex="1" parent="1">
          <mxGeometry x="340" y="350" width="120" height="20" as="geometry" />
        </mxCell>
        <mxCell id="1LB95kGKWVcy9-SdDkMr-47" value="&amp;nbsp;created_at" style="text;html=1;strokeColor=none;fillColor=none;align=left;verticalAlign=middle;whiteSpace=wrap;rounded=0;" vertex="1" parent="1">
          <mxGeometry x="340" y="350" width="120" height="20" as="geometry" />
        </mxCell>
        <mxCell id="1LB95kGKWVcy9-SdDkMr-55" value="" style="rounded=0;whiteSpace=wrap;html=1;" vertex="1" parent="1">
          <mxGeometry x="414" y="-10" width="120" height="20" as="geometry" />
        </mxCell>
        <mxCell id="1LB95kGKWVcy9-SdDkMr-56" value="&amp;nbsp;delete" style="text;html=1;strokeColor=none;fillColor=none;align=left;verticalAlign=middle;whiteSpace=wrap;rounded=0;" vertex="1" parent="1">
          <mxGeometry x="414" y="-10" width="120" height="20" as="geometry" />
        </mxCell>
        <mxCell id="1LB95kGKWVcy9-SdDkMr-64" value="&amp;nbsp;desk_id" style="text;html=1;strokeColor=none;fillColor=none;align=left;verticalAlign=middle;whiteSpace=wrap;rounded=0;" vertex="1" parent="1">
          <mxGeometry x="250" y="150" width="120" height="20" as="geometry" />
        </mxCell>
      </root>
    </mxGraphModel>
  </diagram>
</mxfile>
